<svg width="640" height="360" viewBox="0 0 640 360" fill="none" xmlns="http://www.w3.org/2000/svg">
<defs>
  <linearGradient id="lg" x1="0" y1="0" x2="1" y2="1">
    <stop offset="0%" stop-color="#06b6d4"/>
    <stop offset="100%" stop-color="#8b5cf6"/>
  </linearGradient>
  <radialGradient id="rg" cx="50%" cy="50%" r="70%">
    <stop offset="0%" stop-color="#22d3ee" stop-opacity="0.25"/>
    <stop offset="100%" stop-color="#0b1220" stop-opacity="0"/>
  </radialGradient>
</defs>
<rect width="640" height="360" fill="url(#rg)"/>
<g opacity="0.9">
  <!-- Bars -->
  <rect x="60" y="220" width="30" height="100" fill="#22d3ee" opacity="0.6"/>
  <rect x="110" y="180" width="30" height="140" fill="#38bdf8" opacity="0.6"/>
  <rect x="160" y="140" width="30" height="180" fill="#60a5fa" opacity="0.6"/>
  <rect x="210" y="110" width="30" height="210" fill="#818cf8" opacity="0.7"/>
  <rect x="260" y="130" width="30" height="190" fill="#a78bfa" opacity="0.7"/>
  
  <!-- Line chart -->
  <polyline points="60,260 110,220 160,200 210,160 260,180 310,140 360,120 410,150 460,110 510,140 560,100" fill="none" stroke="url(#lg)" stroke-width="3" opacity="0.8"/>
</g>

<!-- Coins -->
<g opacity="0.85">
  <circle cx="480" cy="240" r="28" fill="#facc15" opacity="0.9"/>
  <circle cx="520" cy="210" r="22" fill="#fde047" opacity="0.8"/>
  <circle cx="545" cy="250" r="18" fill="#f59e0b" opacity="0.8"/>
</g>
</svg>
